/* XPM */
static char *wall1680645320[] = {
/* columns rows colors chars-per-pixel */
"90 90 161 2 ",
"   c #32271D",
".  c #352A1F",
"X  c #382A1E",
"o  c #362C23",
"O  c #3A2E24",
"+  c #392E2A",
"@  c #3D3126",
"#  c #3E332A",
"$  c #3E3231",
"%  c #413426",
"&  c #42362B",
"*  c #48362C",
"=  c #45392D",
"-  c #493C2E",
";  c #423632",
":  c #453B31",
">  c #4A3D33",
",  c #4D3E3A",
"<  c #503F34",
"1  c #513F3B",
"2  c #474036",
"3  c #4D4135",
"4  c #4E4339",
"5  c #4F483B",
"6  c #524435",
"7  c #504936",
"8  c #52453B",
"9  c #58473D",
"0  c #55493D",
"q  c #5A4C3E",
"w  c #57503E",
"e  c #5D503E",
"r  c #63503F",
"t  c #534542",
"y  c #564B41",
"u  c #5B4D43",
"i  c #5D4D48",
"p  c #5D5144",
"a  c #5F5846",
"s  c #5E5349",
"d  c #604E43",
"f  c #604E4C",
"g  c #625445",
"h  c #685647",
"j  c #645947",
"k  c #63554B",
"l  c #69574C",
"z  c #65594C",
"x  c #6A5C4D",
"c  c #645651",
"v  c #695755",
"b  c #665B51",
"n  c #6B5D53",
"m  c #6C5F58",
"M  c #705F56",
"N  c #6C614F",
"B  c #71624F",
"V  c #6D6154",
"C  c #6F6855",
"Z  c #6E6359",
"A  c #726455",
"S  c #786757",
"D  c #736956",
"F  c #7A6A56",
"G  c #73655A",
"H  c #78675B",
"J  c #75695C",
"K  c #7A6C5D",
"L  c #7C705E",
"P  c #716360",
"I  c #796763",
"U  c #766B61",
"Y  c #7B6D62",
"T  c #7B6E68",
"R  c #7E7164",
"E  c #7E7369",
"W  c #806F5E",
"Q  c #81715E",
"!  c #816F62",
"~  c #827364",
"^  c #887767",
"/  c #857866",
"(  c #897A65",
")  c #847569",
"_  c #887669",
"`  c #86796B",
"'  c #8B7C6C",
"]  c #917F6F",
"[  c #867B71",
"{  c #8C7E71",
"}  c #8B7E78",
"|  c #917E72",
" . c #8C806F",
".. c #93826E",
"X. c #8E8173",
"o. c #8E8279",
"O. c #938374",
"+. c #988675",
"@. c #968875",
"#. c #9A8A76",
"$. c #94867A",
"%. c #99877A",
"&. c #96897A",
"*. c #9B8C7C",
"=. c #9E907C",
"-. c #A18F77",
";. c #A18E7D",
":. c #A2927E",
">. c #A8947B",
",. c #A8987F",
"<. c #968780",
"1. c #948B81",
"2. c #9C8D81",
"3. c #9E9182",
"4. c #9F9983",
"5. c #9F948A",
"6. c #A18F81",
"7. c #A49484",
"8. c #A99685",
"9. c #A59985",
"0. c #AB9A85",
"q. c #A59689",
"w. c #A9978A",
"e. c #A6998A",
"r. c #AC9C8B",
"t. c #B29E86",
"y. c #B19E8C",
"u. c #AC9D91",
"i. c #B19F91",
"p. c #AEA08B",
"a. c #B0A087",
"s. c #B3A28D",
"d. c #BAA58F",
"f. c #B6A98F",
"g. c #AEA191",
"h. c #B4A493",
"j. c #B9A794",
"k. c #B6A894",
"l. c #BBAA95",
"z. c #B6A699",
"x. c #B9A799",
"c. c #B6A999",
"v. c #BCAC9B",
"b. c #BDB297",
"n. c #BFB09D",
"m. c #BEAFA1",
"M. c #BDB2A1",
"N. c #C1AD96",
"B. c #C1AE9C",
"V. c #C3B19D",
"C. c #C8B39E",
"Z. c #C1AFA1",
"A. c #C4B3A2",
"S. c #C9B6A3",
"D. c #CBBAA5",
"F. c #C7B7A8",
"G. c #CCB7A9",
"H. c #CBBAA9",
"J. c #D0BFAD",
"K. c #CFC0AD",
"L. c #D3C2B2",
/* pixels */
"] ] | ' K j 0 q J 3.1.Z s V x p - - r A ^ +.' ( ! x g 4 ; : y N s y p A ..' q - 2 y 4 # $ y V ~ ~ L K K H G M v y ; o & t s V n A A x x g q g G U Z k y q 9 9 9 q j J J s 8 a K U Y ",
";.*.;.*.O.~ A x J [ ` Z J { ' K l h S ^ %.#.O.O.O.~ G k y y b P b s p x ( Y p g V U Z 2 : s ~ @.#.....@.O.O.{ [ H n u 5 y Z ~ ) _ [ ' _ / K J Z J J G G J K H H F ~ ' { J b H ' O.O.",
"j.j.x.v.v.h.=.O.Q F S S $.v.v.g.%.O.+.7.k.r.7.r.u.u.q.O.E U R ) E C p g A S l Q $.7.} k 0 n ' r.f.s.s.s.l.j.j.j.i.8._ n V ` 3.w.r.i.k.p.h.e.[ U K | 7.u.s.s.r.0.r.p.h.s.7.+.O.*.t.h.",
"t.y.d.j.l.l.s.e.#.Q W / 7.G.A.v.r.7.O.O.&.O.) ' { $.5.5.X.J Z V C L L ~ ' W x K O.$.' i 0 G O.r.f.f.a.s.l.l.j.B.D.N.0.#.] ' O.6.r.u.g.r.g.5.U b Y *.x.A.V.l.l.f.N.N.v.B.l.r.7.+.8.8.",
"-.;.7.8.y.y.p.k.t.+.....7.j.h.8.r.*.K x B A V l h V Y @.[ n p 6 z ` 8.h.t.O.A x F A p : > n ' #.-.*.%.%.;.;.8.r.l.l.l.h.6.( K _ | O.+.O.$.) i k ' 7.n.v.f.a.a.f.s.a.a.l.v.h.*.( ~ ~ ",
"W ! ' &.7.6.3.e.7...] ' +.8.7.*.w.O.A d x ~ ^ ~ V z j S ~ Y D l / 2.k.v.j.w.O.Q l 9 = O = k H ~ ( _ _ ' ] O.| ;.0.s.l.l.r.] S M A H W K J n u h B ( =.0.0.7.:.,.8.9.8.p.j.h.O.S u y ",
"g n H ` { [ ` ` ~ Y R ' O.O.O.{ ' K j h ! &.q.6.^ l 6 q x E ) ) %.w.h.z.h.k.8.{ h > O o & , s b v l M G I _ } | ..*.8.r.w.] M g g x F K K F M S B A W ^ O.O.O.O.@.@.@.#.=.*.R a = O ",
"k k k b Z Z b c s s V ' O.X.) Y H h r A ] 7.i.r.#.S q * q H ~ R ' $.7.q.*.*.*.' A 8 * ; + + ; 2 1 1 1 i l M ) ) ~ X.&.;.&.! B M F ' &.7.8.r.w.6.| K g r x S J L ~ ^ ` / ` E Z s 5 = ",
"Y Y A b b a 0 0 p j ! ;.7.%.O.~ n g j K 7.r.8.7.+.~ g 6 u J Y Z n S R ` R Y Y J z s q 4 2 # 2 0 u 8 > , t k M T G E ` ' ) Z n ` *.w.f.s.V.V.Z.N.u.) 8 = 4 y s b V Z Z v n x e g j C ",
"y.r.8.O.K g q l ^ *.h.B.B.B.l.r.` D ~ O.r.e.%._ K ~ ~ ~ ` ` V 0 , > 0 p u y u 8 q V U N u u C  . .E n y 1 8 i c b V N x j s U 5.m.n.l.h.j.s.N.i.u.) 0 = = = : > > 4 y 2 : = 3 j O.9.",
"B.B.j.r.#.F x S +.h.B.S.C.V.V.v.*.` ' $.2.O.) K F O.7.q.e.3.~ u : % : u p s y 3 2 b T Z a C  .9.0.9.@.R M n G I K K L K G n ~ e.v.c.h.0.8.:.8.6.&.~ k h n n k 3 & & 8 i 0 6 6 g @.a.",
"y.t.t.j.i.*.' ~ ' 8.h.y.r.0.w.w.7.%.| ` { R A K ( q.m.v.A.v.6.H 9 : 9 n J U n s i Z T a a J  .7.f.k.l.h.w.7.6.6.*.7.8.r.q.' ) $.5.&.=.=.#.O.+.| / Y Y O.u.h.1.G 6 - d ~ ' K l p ! O.",
"] O.7.q.e.&.E G K &.7.:.7.=.@.@.` ` { | *.{ Y ~ _ 6.i.i.j.x.7.! g r A ] %.&.| ' ) R H 9 6 M ' 7.a.f.k.l.j.h.h.i.j.d.i.x.i.%.! ! L U R R L K G K F ( #.y.m.F.z.' x q A 7.i.2.~ n n n ",
"S K ` ' [ E V s a E X.X.O.X.R C g d ~ <.7.7.&._ ! ' | $.&.2.%.{ x h / 6.w.r.w.r.e.` l > * f I { ..#.&.7.w.u.i.i.i.x.y.y.w.%.! A j x D L J N p k W #.j.j.v.v.h.&.L A ( j.S.i.*.R y : ",
"6 p V Z n s 5 ; : b G G Y J b 5 : : n ) [ | { G l V G A J J J J g 0 V ) | $.%.6.5.E s t d l n V J Y / ) { $.2.6.6.6.8.>.*.| ~ A A / @.=.@.R g k ( 8.j.j.s.r.5.@./ K ' h.Z.i.3.) y @ ",
"- e D G k 4 = O # 4 u k b s 8 & # ; u k n G D N b Z n s y j b b u & 4 s n Y Y ) E b u k n n h 7 0 p b n Z G E ` { | ] | ' ! L ~ ..8.k.n.k.o.l n -.t.t.0.e.#. .R K F ' y.y.7.&.` q @ ",
"N Q *.3.{ J 4 O X 3 z Y Z 8 # # > y V b q 6 3 B ) &.X.Z s N T I k & % & < q j r u 6 , b I G l > : 2 2 5 , 8 g V K ! Y K G V K 7.h.f.V.l.l.w.K A +.:.7.#.X.{ E V m I [ 6.6.<.O.! y : ",
"@.3.c.c.5.R q 2 & 0 D ) J 0 = 3 z ~ &.' x q 6 x $.*.X.Z z J ) _ l 6 > < r h B h 0 6 9 n J G M k y q 0 3 * % > 0 k l V n z l Y q.v.l.l.s.l.0.' K ' ' O.` Y G n u 0 n Y ' ' ) ) F k u ",
"h.p.e.3.o.Z 0 0 p a J [ R z p x 2.v.F.m.*./ B F ~ K A q a Y ` ~ K G K _ O.*.;.+./ J V p u b E $.3.O.' H q = = = > t k l b Z ` e.j.t.0.0.0.9...K V Z J G z u , & # 4 s n M k z g F ~ ",
"h.w.*.X.~ z 0 p j y p J J j V ~ x.L.L.H.B.r.#.+.( A g 3 g ) ) H I ~ 2.w.h.h.s.8.&.@.` h q K 2.z.V.j.h.*.) A h u b k k u s V ) 1.8.:.#.#.#.#...L s s b V n k q , > > > i f 9 6 j { 7.",
"%.O.~ H C a 8 8 8 3 4 p u q A ] v.H.D.D.V.v.v.v.r.~ h 8 n | ^ S ~ { 7.r.i.r.8.&. .X.X.C V $.g.A.H.S.S.C.l.y.q.2.q.{ Z 8 = q Z ` O.+.O.+. .' X.J s 0 p Z R ! F A g u q u i y u x O.r.",
"S x r j H G z 8 & , 4 u u q H #.h.D.V.v.l.B.V.V.h.' H A ] r.8...Y K ~ ' O.O.' ~ R L G a x #.v.F.S.C.C.C.C.B.v.h.m.u.O.h 3 3 y N U ~ / _ Q L J s 5 2 p R 2.e.7.=.+. .' ) ` ` G V ! ' ",
"q q < k Y ) G 8 : k Z b k u A O.s.v.s.s.t.y.r.0.8.O.' 2.h.J.D.f.~ z g h n D J G k u 8 = p  .s.l.l.j.d.l.j.l.l.v.v.m.i.' z > # 5 b z n V S C s y @ = z @.l.S.V.V.C.V.V.v.v.m.2.H p u ",
"_ ~ G A m v k 4 t E 1.E b 9 j ' w.s.8.7.*.:.*.8.7.$.$.e.v.H.K.l.@.N 8 > 3 0 n n i 2 @ o 3 L *.0.s.t.t.a.0.0.t.h.j.x.h.6.! u 4 V b p 0 u b Z c y # 3 C *.l.V.V.N.C.b.V.n.A.m.<.U c 9 ",
"j.r.7.{ V 9 , 4 k } 5.} c & 0 R *.7.*.+.+.+.#.&.@.{ O.7.h.C.V.l.7.` p & - q S Y Z i * O - h / =.:.=.:.9.8.>.7.:.8.r.r.7.' n k E U u 8 j A R R J 6 q N @.s.s.r.s.p.s.s.h.h.r.X.K n b ",
"S.F.v.w./ k 3 = 9 Z U v 4 & u ) &.7.6.&.*.&.&.+.@.Y I [ ;.j.l.p.e.&.S j l / 7.h.w.) c 0 8 p G @.=.=.#.#.*.*.;.*.;.-.;.O.R u 8 G J A R &.8.r.p.:.~ C j S +.#.*.2.7.:.7.;.;.O.R V Y ~ ",
"A.S.A.h.&.F 6 % : z n b 8 = 0 U { &.*.+.@.O.O.' ) m k v / 8.t.8.e.=.' ~ ' 7.Z.J.D.8.' K n k l G L R ' X.O.@.O.O.O.| ' R l 3 0 E  .O.0.l.v.V.V.d.=.L q q D ~ ` { X.| O.| ^ ~ A x / O.",
"j.j.h.y.7. .x - 3 J X.X.H 8 6 k ~ X.X.'  .^ ~ R V i 8 8 x O.6.;.*.*.O.O.:.d.S.S.V.t.+._ ~ K s 8 0 a G J Y ) / / ' / K g 4 4 A 3.c.l.l.N.l.N.N.a.3.L 5 : 8 s m U J G G G K K A h ~ O.",
"0.0.8.7.7.O.V 6 7 X.c.v.3.J u y n Y ~ Y K F G V s 4 ; % q K ..O.$.O.'  .#.t.B.V.l.t.#./ J G s y 4 4 y s b J H G G G z : % a ' h.D.n.l.d.a.t.a.:.&.U y = # > y Z P v i d G [ _ I ! / ",
"*.*.*.&.@./ z 5 a 2.A.K.S.3.A 8 i l n n D G G Z k 8 ; & 6 V ~ ' [ ` F S Q #.s.l.d.0...x 7 y b U V q 4 2 p V z n x k 0 O - S 4.c.b.f.s.0.>.=.=.&.X.U y = O # s G T v 1 > n $.2.{ G n ",
"] ] ] ' ) J a 0 z 7.A.D.D.v. .p 9 8 8 p z Y { } E G b p p j A E ` E V z G  .0.s.8.-./ q % 3 G $.) z e a n V s s j k u 8 a ^ e.k.p.a.>.*.#.'  . .E U a = & - g G ) Z u 6 l ' } ~ h 0 ",
"K W Y K G z 0 3 z 3.c.s.l.V.7.K 5 = & 3 p ` e.u.e.3.&.) x p p G Y G z x R @.3.3.O.O.L 0 & 0 J $.' D S Y ) J p y k n G U Y  .=.0.9.=.....' ~ U U U b y 5 u k F ' ' ) H l x S A c 6 & ",
"y y a s y 0 & = j O.t.t.d.k.9.&.J p = % 8 l F ' _ ^ ^ ~ x 6 0 n P G y u Y O.2.2.6.} ! v c v G G k r d A Y S g 9 q z G K R L ~ O.O.{ ' ! U n k i i t 9 j Y O.:.r.y.8.>.=...( S q - + ",
"@ # 2 2 : = 3 4 g _ ;.8.s.a.r.9.*.L 6 @ - q h N W S A A j 6 u V n b 8 y U { $.5.6.| ) I U U n y > < u x H S x j q g k V V x z H K J A b k k u 8 8 : 8 M 2.z.B.A.V.l.N.N.f.,.^ p : O ",
"2 = 2 # # y V V H { *.;.:.;.3.5.3.` q - e C ' O.O.] ! F h q a x c u 4 u G ` [ $.O.{ Y U H I n u d M _ +.:.7.#.+.~ N q 8 6 > - 8 i u 4 8 d n A z 8 = > G e.v.v.v.k.f.h.b.l.f.O.N > + ",
"a a a p w j J J G ) ' O.&.%.&.&.@./ q 6 D ' w.h.r.8.O.( ~ F K G m 8 > 8 n E ~ ' [ ~ G z s g n K _ %.w.i.j.l.j.s.>.R 7 # o o # , 9 c u u k G ~ J u , 8 H &.8.8.w.e.>.7.8.p.r.O.J 8 & ",
"=.e.9.@.R N q 6 t n ~ { o.o.&.o.' C 3 q ~ #.g.g.i.h.y.y.s.p.r.5.U 7 = 3 z K J R Y K V y - > n $.i.j.h.h.l.v.b.V.r.' f * . o , s U $.2.$. ./  .~ s , > j R ` ' ' O.{ O.| @.{ Y z 4 = ",
"v.F.n.c.9.R w & & u P [  .E E  .J N q N ` *.r.r.w.y.r.y.h.v.c.g.` k = = p D J J J J n 0 & % x 7.j.h.h.t.p.t.a.s.s.{ k ; # 8 G { 7.c.m.z.p.=.O.~ n 8 = 7 j l l A G G Z M n v i 4 0 7 ",
"G.S.n.n.c.=.J 8 # 5 z Z P Z G G V V D J K ) O.%.*.6.;.6.7.e.r.r.2.Y 6 % 3 a J U K J V s 6 = g ..*.#.-.:.*.#.#.#.#.L u > i _ r.m.F.A.A.M.n.g.;.' V y @ o & > 8 p y 0 1 , , : = = p z ",
"N.l.j.v.v.h.*.V 0 y y s s p u 7 e s G H M K ' | ' O.+.O.O.O.3.5.$.) a 2 5 p N C J D n V D l l H K ~ ^ / / ~ / Q K A f i G 6.Z.F.S.V.n.A.A.k.e.7.o.U u # # > u n D n g u q 8 > > q z ",
"7.6.8.r.h.h.q.O.L p 7 6 3 > & = 7 z G n h b K E E ' [ _ _ ' { { [ G v s k s p z V z z R { E n j g N D S J C b b h u l S ( s.C.C.d.d.s.l.j.h.h.i.g.%.n 6 - q K O.%.&.' ~ L K A r q 6 ",
"K ! O.*.6.r.r.w.&.` K n 0 = - 9 E O.{ K u 8 u s l n A G K H G n i y c G I m 2 : 2 : 4 V K n q 6 q x R ` ` U z y 8 h R ' ..s.V.l.s.t.,.0.8.8.8.6.&./ u 6 u ! 7.y.s.y.0.:.:.7.&.' x q ",
"d x ~ ' ' *.7.7.w.8.&.~ g % 9 H q.g.u.$.M 9 > = 8 u k M A n d 9 > 1 v ) [ J > @ # # : i b p 7 > q J  .&.&.` s 5 8 C ' ' ( -.a.,.:.-.#.+.O.| | / G u = > n *.v.v.l.f.l.l.l.l.k.r.F p ",
"6 r A F ! ' $.*.*.8.*.' h - h ] z.F.F.v.7._ h < * d T | ` n y , 9 k U ` ~ G 0 > $ $ y b G n u 3 j R &.*.=.X.N y 8 V ~ D r D Q Q K ~ K Y A A v k 8 # O 6 M O.y.y.0.8.t.0.w.r.e.2.H p ",
"7 k J G M G ) ' ' X.' ~ l - l O.l.D.D.C.N.0.' x d M ' 2.X.G k z U { *.%.| ( H G N b b b Z b p q C X.*.=.*.X.V u 8 k z q 3 0 j N Z C Z b s 0 , : & = 0 g V ) &.*.#.+.+.+.| %.X.) j 4 ",
"k J ` Z q k V H J J J J l 0 l ) 0.V.d.s.j.h.8.+.} ~ ~ { E l H $.i.v.Z.x.h.h.i.u.5. .V 7 > 3 q x R @.7.=.*.' V q , 3 4 = = w V E E Y G m y ; @ O 3 z E Y Z U Y Y ~ K ! _ ~ Y G b 3 @ ",
"n J Y k 5 u z n a y z J G x n G *.r.8.;.w.y.u.u.2.[ H N j j / w.Z.F.S.B.B.B.B.Z.c.4.R p : : g R #.e.r.0.0.*.' K l p 0 - = q A ) ' K M g 8 : - > u K $.[ Z s y y d k h l l k u 9 > = ",
"V k u 8 3 p z z s 5 b E ` ~ G G { #.O.+.;.6.<.<.$.` l - % q ' r.h.x.s.d.s.y.y.r.p.=.` V u g K 7.s.l.k.s.h.l.h.e.*.' R j e e j K F x h q 6 q h A M G ) R b 2 @ ; * < 8 6 6 - & : u z ",
"2.{ b 0 - , p G R U J U J g p a J ) R K ' ) Y ) Y U s 2 = q ~ 5.e.w.0.8.7.:.;.7.:.*.' n p z K &.w.r.p.r.0.s.h.y.r.q.3.' G g 0 j S K K S Q ] +.*.+.O.{ G u # o : p G F Y A u > 4 Y $.",
"L.v.X.x - % q ` 5.5.@.L p & = 0 p n n x n z a k k Z z p 7 0 D X.&.@.$.O.O.O.O.X...{ ) z u p V ~ ..O.....+.+.;.7.7.u.c.r. .p - r W O.7.r.h.j.v.B.N.y.%.M 2 o # V $.u.x.h.*.K p p 1.c.",
"L.F.h...h < q ..c.c.g.*.L q - = > 0 n M l q 3 3 > z R ) Z 0 5 z U R E ~ ~ ~ ) ) ~ K N 4 = : 0 n V V S L ~ / ' @.$.2.7.2.^ e 6 D O.r.v.v.C.A.B.A.B.l.0.) p @ : E r.M.H.F.r.~ a u 2.m.",
"C.C.C.r.( B x ' e.v.v.c.8.' N 6 - , k b p 6 = @ > z R X.E y # ; 4 p c k b n Z U x k 4 $ # # 2 s p e q a z x V J E Y Y J C 0 e  .h.m.A.v.j.h.y.r.t.0.0.X.V 3 7 { M.G.D.A.0.K e 0 { u.",
"N.C.S.j.8.^ x x K 6.k.l.s.q.&.' V p u y 7 0 0 7 6 g x A k : @ @ + : 2 2 5 s b Z l u : > 4 2 y Z G V q = - 3 0 e u k p u 0 - q R =.r.r.7.;.;.&.#.#.#.@./ C w j *.M.Z.v.h.O.x - - Y 2.",
"s.s.j.j.j.#.A 6 6 ~ 7.h.h.p.h.g.X.D 6 > p N L L F F S A x q , & # # # # $ y b Z G k i b b p b E { ~ g & @ % % & = - - 4 q 8 u n Y ' ' ~ ~ ~ ~ R K K L J V z Y 8.B.l.r.7.L 6 % - G @.",
"8.>.8.y.i.2.) q 6 n ' *.:.7.r.s.8.' 9 u Y &.p.p.r.0.0.0.6.| Y A j p 4 # @ > b T ' H n ) E z z ~ @.{ G u 3 4 3 = = = = p J Y A p 0 a g q u g p p g g x j j K @.h.j.y.&.^ h > % 3 K $.",
"-.#.%.6.8.$.~ 8 & u C ^ ..O.#.0.7.| 0 g X.r.V.V.V.b.B.V.N.y.6.%.o. .J y = 3 G $.w.| K Y K k H $.w.w.&.E K G A J k 9 > z ` ` G 6 # : > , 0 p y 7 3 q V b C ' *.r.w.;.' Q h q q k R @.",
"O.O.O.$.$.) b 4 > 3 u V Y ` ..+.*.( 9 r O.p.c.b.s.s.s.f.l.l.h.s.v.c.7.L 6 q O.h.G.w.~ e 6 r ' h.Z.B.B.j.r.r.u.u.5.R s k Z G b 8 : , 4 u N U J N 4 y m [ X.O.| 7.8.] Y n G ` Y U ' ( ",
"_ ) ) { ) Z k v b y 2 9 k V S K R G 3 8 U { &.&.#.:.>.8.8.7.8.e.r.e.&.K 0 j 7.v.F.h...g 6 N +.v.S.Z.B.Z.z.h.k.k.u.O.H n m Y ) H G F Q ' &.4.#. .U m m n G J K X.| ! F N L &.X.` G A ",
"G Z J J Z s d ~ ` v 4 : > 5 q j n b 2 : y s Z Z R / ' ^ ^ ^ ' ..' ` J z 0 n 8.v.v.i.@.V r A  .r.y.8.6.8.6.6.%.&.O.[ H v M | w.w.y.y.j.l.S.D.l.k.5.[ m u > 8 j J ~ G A j R *.@.~ c i ",
"s z n s 0 , < v M u : o . @ 7 V [ ` b : $ # 2 2 8 y p k z x G L U V a 0 6 A q.u.r.%.+.) S j N ' | ] ' | { [ E R G l d h ! w.B.x.s.s.j.v.c.s.s.s.w.| G 4 O & 0 b x h u 0 z ) K k 8 = ",
"2 5 u 5 : * % d c d 8 ; o @ y U =.&.U q - = = & : : : : > 6 l K Y G k 7 6 V 6.w.%.) R ) U s a J K K S M l z z k 0 3 = p ) w.x.r.q.7.7.7.7.#.&.&.O.' G 8 # & 2 y i t t , y b i 8 @ O ",
"O + # # % * 9 S ' ` Y Z k p a Z ~ L A e q x A A z u 8 = O % g ~ $.X.U z p D &.2.{ V p y s a J &.O.~ j < > , 4 3 7 = @ 7 H $.7.*.O.' ~ T Y J G n D b u 8 4 > : : t t t 1 t y t ; @   ",
"o O # 7 q j K +.w.w.q.2.$.[ U V j j x F ^ +.:.7.| ) A d 6 6 h S | X.K z p V [ [ J a 5 4 y b R e.*./ u * # @ # 2 s a p q e A E H G G U Y U Z s i 0 4 8 i V k 5 q i m M n b n b u > @ ",
"@ - p J X.=.s.j.v.x.g.u.g.u.&.Y w p K ;.s.B.v.v.h.u.7.@.~ B h d d k 8 > 5 s Z v s s b Z b b V E ) Y A u 3 @ 2 b o.o.E a 3 3 0 - 9 c ~ X.} Y b 8 = & 4 G { E n Y X.7.r.8.8.8.3.+.n q ",
"= i E *.r.k.l.c.s.0.8.w.e.q.$.E 4 9 ' r.C.S.B.N.x.v.c.p.7.@.~ F x k > & = 4 0 2 : p V U G u q D R  .$.` G u 0 b ' o.} s # @ % X 6 x ' O.X.~ V u 2 : 2 G  .J C ' e.h.k.f.s.f.h.5.J a ",
": V 2.g.g.q.7.:.#.( / K ~ ` E v 8 u { u.l.l.y.t.0.r.p.p.r.r.e.r.5.` u @ o # = O O 8 b Z z 0 q F @.p.A.A.r.[ x u z n V y ; @ % > r A _ ' ' ~ F M a s y a V a g E #.7.,.=.#.*.*.o.n 8 ",
": i E $.@. .' ( F B g q y p p 8 % 1 ~ 7.r.r.9.:.*.#.-.7.8.e.w.u.5.{ a @ . # 0 p j N z p q j K &.f.v.D.S.m.r.O.F l p 0 4 & = u K O.+.;.:.-.*.*.*.&. .z u 0 0 p G L L L L K K F N 0 - ",
"# & 8 z G S C j e 3 = - 6 9 u 6 : 8 H O.*.*.@...] ( ' ' ' O.{ [ ` G 0 # 2 e L o.2.X.D 3 6 Q 8.A.l.l.l.v.v.B.z.7.~ x 8 # @ 7 ! r.B.B.v.l.l.l.N.B.c.e.R q 2 6 u k p u 9 y i u u q > @ ",
"O O % : 3 q g g q - 6 j K ` ~ K l h z H G L J D H D D V G J Y U N p : 2 G { 7.h.v.h.+.g q ] h.V.l.d.y.j.i.v.x.r.&.) z ; = z @.v.D.A.l.l.l.v.l.l.c.3.J 3 % < g z k k 8 1 , t b n g 6 ",
"@ @ & # & 3 u k p 3 q / w.x.h.7.| ! l a q p p p u p k s z z z a 3 : 5 Z &.c.m.F.S.v.w.A x *.h.g.s.0.;.;.6.8.w.7.7.X.V > = x &.h.B.v.h.s.s.t.8.8.&.R u - - k K ~ ! I Z b i c Y ) F M ",
"q e j b z c k i 8 = 3 S *.h.l.h.t.7.~ V 0 2 : ; : y v Z V a 4 = # 5 Z &.g.A.m.A.h.8.O.j j *.r.7.-.*.+.| O.] ' { ) J j 3 : u L =.q.8.8.7.:.&.| ' H a 8 u A | e.e.r.w.e.=.O.) ' O.! Y ",
"R ` { o.o.{ E U j p u N ~ =.r.0.t.e. .K y : o   # 4 m U Z y # O 2 N &.z.M.M.h.r.8...~ q q ' *.X.' ^ K A A M l n j p p u 8 6 r K ' X.O.' ` L H n 8 6 u F $.s.n.C.V.v.b.b.p.@.' R _ ) ",
"s.s.l.j.N.N.j.r.;.%.] W H F ~ O.X.{ ` G u : @ o # 2 k n V g > O h %.z.Z.h.r.8.7.&.) V u u b J J N a u y 4 , , : ; t c Z V 6 = q x B K J Z b y : $ t Y 2.y.j.d.a.a.a.9.r.=. .x p K O.",
"D.D.C.V.V.A.B.N.B.i.7.] ' ~ K A H H M n l p q u s n H G x y : = x &.r.h.w.7.@.' ~ n p l Z s p y 6 - & # & : 8 8 1 t s J G k q h V x V z u 5 # O + y ~ 2.8.;.:.#.@. .X.$.' D 6 - Y $.",
"N.v.l.h.r.r.y.r.i.h.y.w.w.7.~ h 0 q h U ' { @.$.7.%.O.' C p 2 : u Y O.&.O.O./ H k u u ` { k < % % O O & , h S ~ G g y z K ~ ..*.O.W A u > % @ & > p H ~ ] _ ) ) R J U J j 6 & - K &.",
"i.r.8.:.O.O.$.$.O.%.2.2.7.2.H q 6 x ' *.e.r.u.h.h.r.7.*.{ Z p 4 h ! ' O./ K x g 0 8 q G K u 8 9 u f l n F ' ;.e.,.( V n E *.r.h.w.;.O.~ j 6 3 0 Y ' O.' _ G u t y y s n b j 5 3 J { ",
"$.| ' ( Y H J J ~ Y R Y E J g 8 x ' h.S.n.l.n.l.y.y.r.r.q.&.U s G { &.O.F j 6 6 8 p z p 8 8 g Y } 2.6.7.q.h.v.C.b.8.@.) { r.v.h.j.v.A.h.@.D z J r.v.n.0.O.n > * $ ; t c U ) v y V E ",
"A n n k p u y 0 9 i u p p u : = h | v.F.l.s.f.0.7.8.7.2.%.{ Z s J $.8.6.Q r - 3 x ) X.z 3 a ~ w.i.x.v.c.h.h.j.l.f.a.*.' ) 2.p.w.u.k.z.p.2.` R ' k.A.V.k.8.' M k y t 4 k ` &.R s p k ",
"g i 4 - = > 4 4 : : = # & & # = G { u.h.:.#.:...+.O.O.' R J N s G @.7.7.( j - q [ q.q.n 4 b o.b.F.B.v.c.t.r.8.6.3.6.&.~ J ~ O.O.2.5.7.5.3.@./ ' 9.f.l.l.l.r.%.O.E b y z R &.Y s 8 y ",
"~ U k , 2 s J T U c 4 @ % 8 p n n J ' ' Q Q L A S A A V z p 2 $ p V K F B 6 @ p R 5.1.v 4 p E =.h.w.>.=.*.&.| ' ! ~ J z q j G ' ' O.@.' ' R C G @.=.a.,.t.0.7.e.2.O.L C j z p u Z Z ",
"X.E V 9 2 b o.1.} Z 8 : : 8 V Y z p k b k N J N N a y 0 4 > > 8 h J F A A d 0 j K E R b 5 s Z R ' ( ~ W ! K G V v b z 3 = 5 y n J R J G C n A n ! ! ^ | #...@.7.4.4. .z < = : 8 V U ",
"K G x 8 : s U E E m 8 > : 8 k l 7 = & > 3 n  .@.` j > # : 7 x ~ &.8.r.q.;.#.) D g q s y j D V j 9 6 6 6 8 6 8 8 h k p 4 = # ; y s s p 0 y z F I f 1 9 h B B S L ' E Z y * + O , y i ",
"D S S a 4 q V J G Z n M H H H x q & X X + k [ 2.X.b > 3 a K @.0.v.v.B.l.h.h.8.~ r 3 2 7 a C j 6 > - > 8 q u k V ~ R R G k : # y y 4 > : 8 k ! ~ f t y v S A V l s c y : < 1 y l s z ",
"W ~ / S g g k g b Y O.8.y.r.:.( x 6 % @ % 8 m I E s y z / 0.n.V.C.l.l.v.s.h.g.&.L 7 2 = 2 p j p k h x H ( | 3.g.h.v.z.r.X.j y s c y , 8 9 l ) | ! I ~ ' | ' G u : & ; , c ~ ' ] X. .",
":.:.;.*.' Y l 6 q W :.B.C.l.s.0...W M d y u k k z 8 u R 7.V.S.l.l.s.s.t.r.7.5.1.` a $ # # u U [ O.$.%.;.8.t.l.B.v.B.v.e.} n 9 0 s j J / ` ] 7.8.w.7.8.8.e.q.{ c $   & b { r.h.y.s.t.",
"v.v.x.j.r.+.A 3 - A ;.l.l.a.s.a.s.7.%.{ ! M v u 4 - p X.g.c.h.r.8.8.:.*.@.@.X. .E N 5 2 2 V o.z.Z.B.N.j.l.l.s.w.0.7.O.@.' A 0 & 2 J 5.n.v.l.B.l.v.l.k.h.z.g.<.Z 8 % 9 ' r.Z.S.B.B.l.",
"w.r.w.8.*.' M r r B ' 8.w.2.3.7.:.*.*.$.[ ! n d 8 6 g Y O.$.+.&.O. .' ' ' ` ` R Z b b s b Z o.c.v.l.y.0.0.7.#.O.] ' / ' { ) n * 3 J 3.g.h.r.h.p.p.9.3.=.&.' J n k u n ~ $.r.u.r.r.y.",
"E ' { ~ A B M A M v n Y ` ` ` ` ' / ) ~ ~ T G k 6 g z z C Y ~ ~ K D F ~ G H Z b s b Z U E R R &.2.@. .' ^ R H D K F H ) | { H > 4 n R $.&. .O.@.X.' ~ R V 0 0 a A ! Y z G ` ' | ' X.",
"u s k u 0 0 j K K u 8 d g k z b z z z g p u 0 8 > u k p k G J Z j p V G V k q 3 & 5 s U K z p z z z g g q q 6 l ~ ` ) H A G k : & 4 u k z x A A B B l u 2 # # 0 x Y A 8 , y a s z z ",
"= > 3 > & - u G J q : > 3 8 8 0 8 7 8 4 > > = # & 0 u u p V C n u 0 z H x u : @ o : y Z G 0 - 6 4 6 3 3 = = = q ) | ' H h k u # O & > > 6 6 e g g g 0 > @ o X > l K l = O = : > > > "
};
