/* XPM */
static char *closed_removebg_preview1680645949[] = {
/* columns rows colors chars-per-pixel */
"61 90 240 2 ",
"   c None",
".  c #3A1C0C",
"X  c #391E12",
"o  c #271704",
"O  c #382518",
"+  c #362512",
"@  c #372924",
"#  c #3A3A39",
"$  c #2E3027",
"%  c #1C2519",
"&  c #451D11",
"*  c #49240E",
"=  c #57260B",
"-  c #462717",
";  c #562B15",
":  c #5C3219",
">  c #682B0E",
",  c #6A2E14",
"<  c #732E13",
"1  c #6D3315",
"2  c #6C331A",
"3  c #69371B",
"4  c #733315",
"5  c #74351A",
"6  c #73391B",
"7  c #7C3B1B",
"8  c #773819",
"9  c #7C390C",
"0  c #463A37",
"q  c #4C3026",
"w  c #693B24",
"e  c #783E22",
"r  c #37433C",
"t  c #7B411C",
"y  c #4B463B",
"u  c #7D4224",
"i  c #7C442A",
"p  c #7A4627",
"a  c #704F37",
"s  c #383D45",
"d  c #413F42",
"f  c #3A4746",
"g  c #3B5454",
"h  c #394D4F",
"j  c #3E605F",
"k  c #434444",
"l  c #454949",
"z  c #5B4C45",
"x  c #564A45",
"c  c #5A5049",
"v  c #455756",
"b  c #4D5655",
"n  c #6C5744",
"m  c #735A4B",
"M  c #4B605D",
"N  c #64635D",
"B  c #6D6658",
"V  c #776556",
"C  c #78664E",
"Z  c #4C5962",
"A  c #4A6668",
"S  c #576869",
"D  c #457373",
"F  c #4B7373",
"G  c #4A757C",
"H  c #597676",
"J  c #4D6E72",
"K  c #646363",
"L  c #686969",
"P  c #736D66",
"I  c #646E72",
"U  c #616F78",
"Y  c #667173",
"T  c #687679",
"R  c #757A7A",
"E  c #75736A",
"W  c #823F1D",
"Q  c #853F23",
"!  c #8B441E",
"~  c #834325",
"^  c #8C4C26",
"/  c #84452A",
"(  c #844A2C",
")  c #8C4C2B",
"_  c #8A4626",
"`  c #934B25",
"'  c #944D2C",
"]  c #9A4E2B",
"[  c #954824",
"{  c #8D522C",
"}  c #94522D",
"|  c #9C532D",
" . c #9E592E",
".. c #8B4C31",
"X. c #854A32",
"o. c #944D33",
"O. c #8C5233",
"+. c #895538",
"@. c #945332",
"#. c #9B5533",
"$. c #935935",
"%. c #94563A",
"&. c #93593B",
"*. c #9C5B3B",
"=. c #9A5837",
"-. c #A5562C",
";. c #A35533",
":. c #A45B34",
">. c #A35C3C",
",. c #AA5D3B",
"<. c #A65A37",
"1. c #AC5938",
"2. c #9E603B",
"3. c #A4613E",
"4. c #AD623C",
"5. c #A76437",
"6. c #B1633C",
"7. c #BF6D3B",
"8. c #885E49",
"9. c #9D5E41",
"0. c #9B5442",
"q. c #A35E42",
"w. c #9D6545",
"e. c #8B6654",
"r. c #A36243",
"t. c #AC6443",
"y. c #AC6A45",
"u. c #A36449",
"i. c #AC664A",
"p. c #A46A4C",
"a. c #AD6C4C",
"s. c #A76845",
"d. c #B26643",
"f. c #B46A44",
"g. c #BA6C45",
"h. c #B36C4B",
"j. c #BA6D4C",
"k. c #B56648",
"l. c #B5714C",
"z. c #BC724C",
"x. c #BC7348",
"c. c #AB6C52",
"v. c #A56B52",
"b. c #B36E52",
"n. c #BA6E51",
"m. c #B96C58",
"M. c #B57252",
"N. c #BC7352",
"B. c #BB7858",
"V. c #A97150",
"C. c #9A786B",
"Z. c #89766B",
"A. c #AD7C6A",
"S. c #C46E4B",
"D. c #C57346",
"F. c #C2744C",
"G. c #CA754C",
"H. c #C8794D",
"J. c #C37552",
"K. c #CA7653",
"L. c #C47A53",
"P. c #CB7B54",
"I. c #C47D5A",
"U. c #CB7C5A",
"Y. c #D17D53",
"T. c #D27957",
"R. c #CD724D",
"E. c #70817B",
"W. c #9B8178",
"Q. c #A88778",
"!. c #BB8060",
"~. c #BC805B",
"^. c #C8825D",
"/. c #D38155",
"(. c #D0804F",
"). c #C88462",
"_. c #D18562",
"`. c #5A7B83",
"'. c #4C7882",
"]. c #667B84",
"[. c #5A8788",
"{. c #5D9393",
"}. c #5C9997",
"|. c #5B908F",
" X c #68888A",
".X c #78878A",
"XX c #75958C",
"oX c #688B92",
"OX c #758C96",
"+X c #679798",
"@X c #739395",
"#X c #74949D",
"$X c #78979A",
"%X c #74A29C",
"&X c #6B9BA4",
"*X c #7395A2",
"=X c #749BA3",
"-X c #7999A6",
";X c #6CABAB",
":X c #69A6A6",
">X c #74A3AB",
",X c #74AAAC",
"<X c #77A6A9",
"1X c #73ACB3",
"2X c #7BABB2",
"3X c #79A8B5",
"4X c #6DB5B8",
"5X c #75B4B5",
"6X c #7BB3B5",
"7X c #74B3BA",
"8X c #7AB6BB",
"9X c #75BCBC",
"0X c #7CBBBC",
"qX c #7ABBB6",
"wX c #71B0AF",
"eX c #6EC3BB",
"rX c #7CBDC2",
"tX c #76BCC2",
"yX c #6FBFCA",
"uX c #76C2C3",
"iX c #7BC3C4",
"pX c #79C8C9",
"aX c #78CCD0",
"sX c #8B969A",
"dX c #8D999A",
"fX c #899596",
"gX c #919899",
"hX c #889AA8",
"jX c #83ACB6",
"kX c #82B8BC",
"lX c #85A4A7",
"zX c #B0A09B",
"xX c #83C4BC",
"cX c #84BCC3",
"vX c #83C4C5",
"bX c #86C8CA",
"nX c #8ACCD3",
"mX c #86D7D7",
"MX c #8BD3D2",
"NX c #83E2E6",
/* pixels */
"                                                                                                                          ",
"                                                                                                                          ",
"                                                                                                                          ",
"                                                                                                                          ",
"                                                                                                                          ",
"                                                                                                                          ",
"                                                                                                                          ",
"                                                                                                                          ",
"                                                                                                                          ",
"                                                      R  XH `.`.T E.E.XX                                                  ",
"                                              N T D G :X:X:X:X:X:X:X:X}.[.J Z                                             ",
"                                          I A [.|.:XeXbXiX9XrX6XuXuXaXaX4X:X&X|.S                                         ",
"                                      v A +X&X;X5X8X0XiXcX3X*X*X-X2XvXuX5X5X5X;X:X[.A                                     ",
"                                    H +X;XvX4X1X>X&X&X8XbXjX*X+X#X2XvXqX,X=X<X2XtX9X1X[.g                                 ",
"                                  H +X:XuXnXrX6X&X*X*X&X XH A A A G +X%X$XOX*X<XiXbXtX4X}.[.                              ",
"                                ;X8X3X7X1X1X0X:XOXT I S s $ X X @ $ r A I S oXwX9XwX1X7X1X9X:X%XR                         ",
"                              :XMXbX;X+X@X%X+X$XZ # O + * ; ; = = - - O + $ j #X@X#X-X&X<XxXnX4XOX.X                      ",
"                          g +X5X5XvX6X+XoXH r k q . * * 1 1 w 1 , 3 : ; ; - $ # l S  X{.6X0X8X7X>X[.XX                    ",
"                        h +X2X&X<X,XjX Xf # O - ; = 1 6  .>.%.@.o.@...4 , 1 ; - O 0 l E.6X8X&X-X:X+XoX X                  ",
"                      g +X<X-X-X#X+XE.v + . w 5 ~ ^ ` ` F.F.a.i.f.a.>._ [ -._ 1 2 & O v H *X*X$X<X<X<XOXK                 ",
"                      +XiX8X*XhXOXH y - ; = e X.>.t.,.] G.F.a.V.h.i.r.' 6.G.,.) Q 2 ; @ d I oX$X%X6XcX[.fXL               ",
"                    J :XuXaX,X+XK # - 5 Q ^ %.u.i.h.i...F.F.a.a.h.c.r.o.6.Y.z.l.q...e , - 0 S OX;XiXiX;XoXM               ",
"                    +X,XwX9X6XH 0 & : ' F.g.y.M.j.g.r.^ D.F.a.i.h.i.9.' 6.Y.z.M.f.d.4.` > - # H 5XqX;X6X+X@XfX            ",
"                  D }.jXhX>X Xs - : 5 1.T.K.J.k.f.f.s.^ x.D.n.b.g.a.9.` 6.Y.g.z.J.F.x.-.9 : @ s '.-X=XjX#XoXT             ",
"                  +XwX<XhX XZ $ = p ! :.P.P.F.l.l.z.u...G.G.b.b.M.i.r.' 4.P.g.j.G.J.k.} ] ' ; O M OX$X%X1X+XT K           ",
"                A ,XeX1X-XY k O 2 ..^ <.P.F.x.z.z.h.9...D.D.N.n.l.b.q.' 6.P.d.j.J.I.h.' ;.,.e - # ].#X%XrX;XF fX          ",
"              v +X4XuX0X*XZ @ ; ( *.{ :.L.F.j.z.N.k.9.) S.D.N.N.N.h.q.o.4.I.f.l.J.n.i.} :.g.' = O b <X6XcX7X[. Xk         ",
"              A ,XtXrXbX#Xl - < %.r.{ :.H.z.N.z.J.g.*...D.G.N.N.N.h.9.' 4./.h.a.n.n.k.' ;.G.<.1 - k +XkXcXcX5XD zX        ",
"            l H :XkX=X*Xj $ - _ t.p.{ :.H.z.N.F.z.f.*...D.D.N.J.J.h.q.' 4.P.j.l.g.j.f.} :.J.f.( : @ j }.<X2XcXD zXk       ",
"            Z [.&XjX#X$Xh % : =.k.c.} 1.H.N.b.z.j.f.*...D.D.n.B.N.h.>.' 4.P.h.h.j.F.f. .:.N.N.&.w X h oX$X2X8XG hXk       ",
"            v |.;X,XOXR y O w ,.k.v...-.H.N.M.x.j.f.%.) D.D.N.J.j.h.3.' 6.P.g.a.h.N.f. .>.J.N.>.w & l ].XX2XtX'.gXgXb     ",
"            F :X4X7X+XA 0 ; ~ :.k.v...-.G.z.c.z.z.f.&.) D.G.N.N.j.j.>.| 6.P.f.f.V.J.g.-.<.J.J.<.p = # A @X1XyX1X$XzX].    ",
"          T +XyXaXuX>Xh - 8 *.a.y.y.[ 1.F.x.h.b.h.a.>.^ G.D.N.M.f.N.<.] 6.Y.f.f.h.B.f.] -.D.z.3.;.5 X v &XvXrXpX'.dXK     ",
"          H {.uXnXbX2Xh - ) L.N.h.y.[ <.L.N.h.c.h.p.9.` H.H.B.m.l.N.q.' ,.U.h.h.b.B.h.#.:.F.L.h.q.e O v <XnXbXnXG sXN     ",
"          H |.8XcX3X@Xf - X.L.n.c.s.' q.I.N.b.c.c.p.9.) J.L.B.b.M.M.9.@.t.I.c.i.m.M.i.#.>.z.B.b.w.X.o h oX3X,XvXD fXN     ",
"          Y {.;XjXoX Xk ; / 4.6.$.%.~ } 3.*.*.&.=.%.@.~ 4.4.>.*.*.>.@.) #.t.=.*.>.9.=._ ] 4.>.=.$.7 . k T +X&XbXD fXN     ",
"          T oX4X3X@XE.a u ` | ;.} } { ` -.| } } @.} } ! :.:. .}  .;.} ` ] -.| #.} } } ` ` -.#.@.} W w m E $X:XvXG fXN     ",
"          I oXtX6X@XB 9.6.d.4.y.6.f.6.6.6.6.f.d.y.t.4.4.6.d.4.6.7.6.4.4.6.6.6.d.6.y.4.5.4.f.6.a.f.6.a.8.B XX5XuXG gXN     ",
"          I {.pXMX$Xm V./.T.B.^._.^.U.I.I.P.U.).^.^./.I.^.L.^.)._.^.I.I.L.L.^.).).^.^.L.^.I.).).U.U.I.0.V XXMXmX'.gXN     ",
"          U {.pXMXlXV 5.7.g.n.l.~.M.a.l.a.a.M.B.M.a.h.j.f.a.p.B.B.a.a.l.a.y.c.M.M.M.c.a.h.h.c.B.B.S.d.X.C XXbXmX'.sXN     ",
"          Y oX4XqX@XP w.>.%.=.O.+.&.0.%.@.@.@.%.+.O.%.o.o.@.O.&.&.&...=.#.o.o.%.%.O.} @.@.O.O.$.%.@.&.a P .X2XpXJ sXK     ",
"          Y {.9X<XOXR a e 2 8 1 1 6 5 4 4 8 4 4 3 6 7 4 8 7 6 6 5 8 4 5 8 e 5 w 5 4 4 4 4 6 6 3 2 4 6 y Y @X3XrXF sXK     ",
"          I |.4X2X#X.Xy - : ~ t 6 t 4 4 W ~ 7 6 3 6 8 1 W t 8 6 e 7 8 4 8 Q 7 e 8 8 8 4 4 t t 6 8 1 * y E.=X:XrXF sXK     ",
"          Y {.4XkX<XoXr . p 4.:.2.@.Q o.d.4.*.*.w.$.) ~ <.4.*.*.*.9.@.^ ] i.*.9.%.%.%.^ } 3.2.*.@.e X r oX1X7XiXD sXK     ",
"          I }.uXMXvX6Xv O ..P.F.a.r.' ,.U.F.g.l.b.r.=.` x.P.z.a.b.k.y.#.1.I.h.a.a.c.r.#.<.K.F.z.f.X.- v >XnXbXmXD sXK     ",
"          Y }.uXvXqX%Xg - ' R.M.p.u.o.,.P.K.F.z.h.i.=.` H./.x.f.h.n.d.-.6.P.g.f.a.c.u.' -.Y.K.G.6./ X g +XcXcXbXF gXK     ",
"          L |.9X8X>X|.f - } I.V.e.w.) >.F.F.z.h.b.i.*.` L.K.z.l.j.h.4.] ,.K.g.k.a.V.u.o.-.Y.G.F.g.X.X h  X<X5XiXD sXK     ",
"          Y |.4X1XoXXX# * @.M.e.e.8.i *.H.z.N.n.m.c.2.^ z.H.z.M.n.N.q.| 6.K.j.j.j.a.p.@.] Y.D.x.6.X.. f H @X&XpXD fXK     ",
"          I oX7X3X#XoX# & ` h.V R B w *.L.J.n.b.j.n.*.) z.L.x.J.F.N.r.@.4.P.g.M.j.N.r.' -.P.D.x.g.{ + f `.*X>XrXG fXK     ",
"          Y {.uXtX:X+Xf O ^ i.e.E m w %.F.B.n.h.N.k.>.^ F.L.l.N.F.N.>.' 6.P.h.l.j.n.u.} :.K.G.j.6.( + l  X3X7XbXF sXK     ",
"          I }.uXmXbX8Xg @ @.J.v.B m i :.H.z.h.N.N.j.>.^ F.N.j.z.J.n.3.) 4.K.g.h.j.M.r.] 1.H.F.x.g.( X v ,XMXmXmXF sXS     ",
"          H {.uXbX0X,Xh O ..S.v.n C i 3.P.j.c.b.J.k.>.^ F.z.y.n.G.N.3.' 4.Y.j.V.j.z.r.| :.Y.J.j.6.^ + f +XxXuXaXJ sXK     ",
"          Y |.5X8X$XOXs - } G.V.n 8.i  .P.N.h.l.N.k.:.) F.z.y.n.F.N.>.} 6.Y.j.b.j.n.r.' <.(.L.J.f.) - f [.>X,X0XD fXK     ",
"          Y oX1X2X@XE.s - %.S.p.a 8.X.5.L.h.h.a.n.b.>.{ F.F.h.z.N.n.>.} 6.P.f.h.J.n.r.@.<.P.H.N.d.( . r ].-X2XkXJ fXK     ",
"          Y |.5X1X@X X# - @.G.c.a C X.4.L.d.a.y.n.j.r.` F.F.f.n.N.N.r.' 4.P.k.h.N.n.r.o.;.H.J.N.y.( & r H #X<XkXF fXK     ",
"          I |.9XpX,X+Xf O o.R.v.a 8.( >.L.h.M.l.h.j.r.' F.z.a.h.J.N.3.} 4.P.j.M.S.n.t.} ;.F.G.J.h.( X k oXjXjXvXG sXK     ",
"          I }.uXaXmXrXg + ` L.v.n m X.,.J.j.h.a.j.M.y.' J.z.h.M.J.J.r.' 4.P.g.z.J.N.i.{ :.F.H.z.j.~ & v ;XmXmXmXG dXN     ",
"          I {.tXbXkX-Xh - ' M.e.E n w $.L.S.a.y.h.k.t.[ J.x.j.M.J.B.r.' 4.H.g.N.J.J.y.} :.P.J.x.a.^ . g }.9XtXnXD fXN     ",
"          I {.tXjX#XoXd - ..v.V R B w %.I.F.k.a.k.h.4.[ L.F.j.h.n.N.r.} 4.P.F.J.J.n.y.' :.J.F.j.j.) & d ].-X3XcXD fXN     ",
"          Y {.4X2X#X].d ; O.c.e.P m a =.J.j.h.a.i.a.t.[ F.F.h.b.h.b.9.' 4./.F.N.j.n.y.' :.K.J.j.y.~ . s ].-X<XrXD fXN     ",
"          I {.1X1X&XoX# & { N.v.e.8.~ #.F.x.a.p.a.a.r.` J.N.h.c.h.a.9.' 4./.F.z.N.N.y.] <.L.z.j.y.( + f `.=X;XuXG fXN     ",
"          Y {.tXtX7X&Xs * { F.N.y.r.' ,.P.x.a.V.a.b.r.[ L.N.a.c.b.c.9.' 6.(.x.j.z.B.d.o.:.N.N.j.t.~ . f  X2X7XpXG gXN     ",
"          I }.pXmXnX7Xl - { F.F.f.t.o.>.F.g.d.a.a.j.,.[ F.F.a.c.j.h.q.| 6./.F.k.l.M.h.| :.N.N.j.3.p + b ;XMXmXaXG gXK     ",
"          I {.uXrX8X:Xs O O.K.K.l.s...*.J.F.j.y.z.j.4.[ H.F.h.a.f.a.>.| 4./.F.z.h.N.h.#.>.L.L.l.a.i . l +X9XiXbXG sXK     ",
"          Y {.7X3X+XoXr * 0.J.g.w.s.( >.B.i.i.i.c.i.>._ n.h.i.q.i.u.0.o.,.F.F.y.t.i.i.@.;.j.h.s.w.i . r [.*X3XpXD fXS     ",
"          I |.7XjX$X.Xy ; _ >.>.) } ! ' 3.=.@.} %.%.^ ! =.$.&.0.$.%.( ^ ` 5.2.} ;.#.;._ Q <.;. .O.Q : y R -X-X8XD fXK     ",
"          I |.4XjX@XE a ) #.#.' }  .' } ;. .} } } #.| [  .#.} @. .=.#.'  .-. .#.;.#.| ] ] -.;.#.$.} } +.E XX3XvXF sXK     ",
"          U }.tXvX%XC a.G.Y.K.U._.P.K.K.L.L.L._.U.K.T.T.K.L.U.U.T.U.U.P.K.G.G.U.I.P.I.P.U.J.U.).^.L.F.&.C @XuXaXF gXL     ",
"          Y }.uXaX<XC l.R.D.j.I.).M.z.J.n.j.N.).^.B.z.N.l.M.B.~.I.B.M.N.B.z.M.B.I.B.l.B.N.l.I.!.!.N.g.o.C $XmXNXF gXK     ",
"          Y {.9XiX@XC a.g.6.q.u.v.w.w.r.q.r.r.a.w.r.r.3.2.w.w.p.u.w.w.w.r.2.w.s.a.p.w.r.r.9.w.p.p.r.q.+.V fXcXaXF fXK     ",
"          I oX5X3XOXE a ( ^ / e p i p t u u p p u p / / / ~ i ~ / Q 7 ~ / ~ ~ ~ i / u ~ ~ / ~ u p ~ u n P OX-XtXD sXK     ",
"          I oX5XjX$X.Xy - > 5 4 , 5 < < 4 < 1 1 1 1 , > 5 4 , 2 1 1 1 , < 4 4 1 4 1 , > , 4 4 , 1 > * x R *X,XeXD sXK     ",
"          I }.5XkX&XoX# O e o.] ) ( 6 ~ { ^ ) X.X.) u 4 } o.~ X.) _ ~ e ~ ' _ ` ^ _ ~ 7 t ` ' ~ ~ 3 . k ].>X3XkXF fXK     ",
"          Y {.iXbX0X<Xf - o.J.J.l.t.' >.x.f.g.y.c.s.*.' x.x.h.h.M.a.=.@.3.N.h.h.h.y.t. . .l.h.a.5.X.. h +XrXiXaXF dXL     ",
"          T {.iXmXbX6Xg - ] R.F.x.f.` <.H.D.g.S.M.a.*.` F.D.j.z.N.l.:.` 4.L.z.z.N.N.d.} :.z.z.l.3./ O g ;XnXnXmXF fXN     ",
"          Y |.uXiXwX#Xh - ] G.D.x.a.' >.F.j.x.z.b.i.r.` z.F.j.J.z.z.3.] 4.I.g.x.N.N.t.] :.L.z.f.3.i X h oX8X0XbXD sXK     ",
"          I |.wX7X@X].l @ o.G.H.l.j.#.>.N.z.l.N.c.a.q.) F.z.z.z.j.z.3.| 4.L.g.l.l.N.y.` <.L.z.h.y.( X k ].*X>X0XD fXK     ",
"          I oX6X2X$X].s - ..F.S.g.x.#.>.(.L.x.l.i.y.*.^ L.(.F.z.l.M.4.| 4.L.l.f.h.h.i.] :.N.N.h.i.i . s ].*X<XiXF dXL     ",
"          T oX,X<XoX].@ O X.z.F.d.i.o.=.N.z.f.f.a.y.*.{ B.L.x.l.M.M.q.@.3.L.h.i.v.c.q.o.#.l.M.i.u.e X f H OX=XcXF fX      ",
"          gX XD A Z v % o 2 +.{ ..X.w e 9.&.@.o.X.X.e 1 { @.' O...@._ 8 W =.' ) ......5 7 $.*.o.X.w o % f b Z J [.        ",
"            dXfXR R Y P V C.Q.Q.Q.C.C.C.Q.zXA.A.gXA.C.C.A.Q.Q.Q.Q.zXC.C.C.zXC.  e.zXA.C.C.Q.Q.Q.C.Z.P L R R R T           ",
"                f k l k k y z z c c x c z c z z z c z z x c z z x c x x x y       c x y x x c z x x k k                   ",
"                                                                                                                          ",
"                                                                                                                          ",
"                                                                                                                          ",
"                                                                                                                          ",
"                                                                                                                          ",
"                                                                                                                          ",
"                                                                                                                          ",
"                                                                                                                          "
};
