/* XPM */
static char *lastdoor1680647124[] = {
/* columns rows colors chars-per-pixel */
"58 90 241 2 ",
"   c #0F1313",
".  c #2D1D12",
"X  c #292518",
"o  c #35271C",
"O  c #2A2926",
"+  c #362B26",
"@  c #38322A",
"#  c #393432",
"$  c #55260E",
"%  c #482B1A",
"&  c #5B2B15",
"*  c #582C18",
"=  c #5C321B",
"-  c #682F14",
";  c #693418",
":  c #783819",
">  c #4A362D",
",  c #593826",
"<  c #683925",
"1  c #783B24",
"2  c #7E441E",
"3  c #784329",
"4  c #6A4A35",
"5  c #754835",
"6  c #795139",
"7  c #323642",
"8  c #365053",
"9  c #4C5150",
"0  c #694E45",
"q  c #685546",
"w  c #785C4A",
"e  c #6E5953",
"r  c #4C645E",
"t  c #736858",
"y  c #475B64",
"u  c #5C5E6B",
"i  c #6E5E60",
"p  c #496569",
"a  c #55676B",
"s  c #4F726E",
"d  c #4E6876",
"f  c #53697B",
"g  c #58757B",
"h  c #6A686A",
"j  c #776A66",
"k  c #6F7276",
"l  c #687879",
"z  c #853C1A",
"x  c #863E23",
"c  c #87441C",
"v  c #914A1E",
"b  c #8A4523",
"n  c #8D4B25",
"m  c #844528",
"M  c #8D4A2A",
"N  c #924625",
"B  c #944A26",
"V  c #934B2B",
"C  c #954929",
"Z  c #9A4D2A",
"A  c #8D5125",
"S  c #99552A",
"D  c #9B532C",
"F  c #874C33",
"G  c #954D32",
"H  c #9B4E32",
"J  c #895437",
"K  c #955737",
"L  c #9C5433",
"P  c #9D5B34",
"I  c #9C5C3B",
"U  c #A3552C",
"Y  c #AB552E",
"T  c #A25632",
"R  c #A45B34",
"E  c #AB5D36",
"W  c #A45C3B",
"Q  c #AB5E3A",
"!  c #9B6337",
"~  c #9C7638",
"^  c #A76538",
"/  c #A4633C",
"(  c #AC633C",
")  c #B3643C",
"_  c #B86639",
"`  c #B36A3D",
"'  c #C36E3E",
"]  c #845948",
"[  c #985B45",
"{  c #A55D41",
"}  c #B05F42",
"|  c #9B6344",
" . c #99664B",
".. c #856C55",
"X. c #9B6C57",
"o. c #99735B",
"O. c #A66647",
"+. c #AC6443",
"@. c #AB6A44",
"#. c #B36542",
"$. c #B46A43",
"%. c #B96A44",
"&. c #BB6B47",
"*. c #B46C4B",
"=. c #AD7249",
"-. c #BA7547",
";. c #B4724C",
":. c #BD754C",
">. c #A46C53",
",. c #B66C51",
"<. c #A97558",
"1. c #BC7554",
"2. c #B87857",
"3. c #8B746F",
"4. c #9B7568",
"5. c #967A74",
"6. c #B17B63",
"7. c #C66A48",
"8. c #C37445",
"9. c #C87B45",
"0. c #C3754B",
"q. c #CA754C",
"w. c #C57A4D",
"e. c #CB7A4C",
"r. c #D67C4B",
"t. c #C37552",
"y. c #CB7453",
"u. c #C47B52",
"i. c #CB7A52",
"p. c #C47B5B",
"a. c #D77C54",
"s. c #E37D4B",
"d. c #E27E52",
"f. c #6E8977",
"g. c #76837B",
"h. c #A9865C",
"j. c #BD8158",
"k. c #BB8366",
"l. c #D4814C",
"z. c #DC834B",
"x. c #C68458",
"c. c #D88555",
"v. c #D6955D",
"b. c #E5844E",
"n. c #E9924F",
"m. c #E48856",
"M. c #EC8D53",
"N. c #F18B57",
"B. c #E8965A",
"V. c #EA9A5C",
"C. c #F0955B",
"Z. c #CE8F69",
"A. c #D99868",
"S. c #EF9664",
"D. c #E49B64",
"F. c #EB9863",
"G. c #D8AA74",
"H. c #E8A569",
"J. c #E5AC74",
"K. c #EFAB71",
"L. c #EBAC77",
"P. c #E4B272",
"I. c #EAB278",
"U. c #546D82",
"Y. c #587685",
"T. c #5A748A",
"R. c #5D7A8C",
"E. c #5D7B91",
"W. c #647887",
"Q. c #627B8C",
"!. c #787D8E",
"~. c #627D93",
"^. c #697E97",
"/. c #588789",
"(. c #5B848B",
"). c #56938E",
"_. c #5D8893",
"`. c #5B9394",
"'. c #599798",
"]. c #5C9B9C",
"[. c #63848C",
"{. c #748C8A",
"}. c #638394",
"|. c #668798",
" X c #768498",
".X c #7A859C",
"XX c #63949B",
"oX c #68969A",
"OX c #76959A",
"+X c #73949C",
"@X c #6FA29E",
"#X c #6D89A5",
"$X c #7C8AA4",
"%X c #778DAA",
"&X c #649BA3",
"*X c #6C9AA3",
"=X c #6998A4",
"-X c #7B95A2",
";X c #749CA3",
":X c #769AA6",
">X c #7D92AD",
",X c #7593B3",
"<X c #7B97B9",
"1X c #5EA6A2",
"2X c #6BA3A8",
"3X c #76A7AA",
"4X c #75A4AC",
"5X c #73ABB3",
"6X c #7CA8B4",
"7X c #7CADB4",
"8X c #6EB2B2",
"9X c #76B5B7",
"0X c #7BB5BC",
"qX c #7CBCBC",
"wX c #77C1BE",
"eX c #7E9DC1",
"rX c #7BB9C2",
"tX c #7CBCC2",
"yX c #7CC2C3",
"uX c #7CC7CA",
"iX c #7DCFD2",
"pX c #838B92",
"aX c #8694A6",
"sX c #839ABA",
"dX c #85ADB4",
"fX c #83B8BB",
"gX c #859FC2",
"hX c #82A1C6",
"jX c #85A5CC",
"kX c #88A7CD",
"lX c #82BCC4",
"zX c #87BDC6",
"xX c #8BACD5",
"cX c #85C7C8",
"vX c #84C5CA",
"bX c #87C7D2",
"nX c #85CCD2",
"mX c #89D4D5",
"MX c #87D7D9",
"NX c #86E1DC",
"BX c #8FDEE2",
/* pixels */
"xXxXxXxXxXxXxXxXxXxXxXxXxXxXxXxXxXxXxXxXxXxXxXxXxXxXxXxXxXxXxXxXxXxXxXxXxXxXxXxXxXxXxXxXxXxXxXxXxXxXxXxXxXxXxXxXxXxX",
"xXxXxXxXxXxXxXxXxXxXxXxXxXxXxXxXxXxXxXxXxXxXxXxXxXxXxXxXxXxXxXxXxXxXxXxXxXxXxXxXxXxXxXxXxXxXxXxXxXxXxXxXxXxXxXxXxXxX",
"xXxXxXxXxXxXxXxXxXxXxXxXxXxXxXxXxXxXxXxXxXxXxXxXxXxXxXxXxXxXxXxXxXxXxXxXxXxXxXxXxXxXxXxXxXxXxXxXxXxXxXxXxXxXxXxXxXxX",
"xXxXxXxXxXxXxXxXxXxXxXxXxXxXxXxXxXxXxXxXxXxXxXxXxXxXxXxXxXxXxXxXxXxXxXxXxXxXxXxXxXxXxXxXxXxXxXxXxXxXxXxXxXxXxXxXxXxX",
"xXxXxXxXxXxXxXxXxXxXxXxXxXxXxXxXxXxXxXxXxXxXxXxXxXxXxXxXxXxXxXxXxXxXxXxXxXxXxXxXxXxXxXxXxXxXxXxXxXxXxXxXxXxXxXxXxXxX",
"xXxXxXxXxXxXxXxXxXxXxXxXxXxXxXxXxXxXxXxXxXxXxXxXxXxXxXxXxXxXxXxXxXxXxXxXxXxXxXxXxXxXxXxXxXxXxXxXxXxXxXxXxXxXxXxXxXxX",
"xXxXxXxXxXxXxXxXxXxXxXxXxXxXxXxXxXxXxXxXxXxXxXxXxXxXxXxXxXxXxXxXxXxXxXxXxXxXxXxXxXxXxXxXxXxXxXxXxXxXxXxXxXxXxXxXxXxX",
"xXxXxXxXxXxXxXxXxXxXxXxXxXxXxXxXxXxXxXxXxXxXxXxXxXxXjX<XeX<X,X|.h i h h k <XxXxXxXxXxXxXxXxXxXxXxXxXxXxXxXxXxXxXxXxX",
"xXxXxXxXxXxXxXxXxXxXxXxXxXxXxXxXxXxXxXxXxXxX<X#X_._././.(.s 9 4 W ( W m J 6 j %XxXxXxXxXxXxXxXxXxXxXxXxXxXxXxXxXxXxX",
"xXxXxXxXxXxXxXxXxXxXxXxXxXxXxXxXxXxXxX<X_.(./.3XrXrX9X8X3Xf...,.x.Z.*.M *.>.5 W.jXxXxXxXxXxXxXxXxXxXxXxXxXxXxXxXxXxX",
"xXxXxXxXxXxXxXxXxXxXxXxXxXxXxXxXxX#XT.(.*X5X5XqXiXuX9X@Xf.h.1.F.H.A./ B y.*.x 1 W.kXxXxXxXxXxXxXxXxXxXxXxXxXxXxXxXxX",
"xXxXxXxXxXxXxXxXxXxXxXxXxXxXxXeX/./.2X9X0XdX7X8XuXyX@Xk | ` n.V.K.x.P Z y.#.F Q ] ^.xXxXxXxXxXxXxXxXxXxXxXxXxXxXxXxX",
"xXxXxXxXxXxXxXxXxXxXxXxXxXxX~./.*XyXmXuX4X;XaX[.3XoXh ] 7.b.C.B.H.u.I Z e.` A ( ,.e ,XxXxXxXxXxXxXxXxXxXxXxXxXxXxXxX",
"xXxXxXxXxXxXxXxXxXxXxXxXhXXX@X2XdX0XrXrX4X{.l y 8 8 > 3 y.v.H.x.2.t.K n e.` A ( ,.[ 9 #XxXxXxXxXxXxXxXxXxXxXxXxXxXxX",
"xXxXxXxXxXxXxXxXxXxXxX#X`.wXyX0X;XoX;XdX:Xp 8 xXxXa > m l.v.J.=.^ y.L n a._ B *.7.M 0 h ,XxXxXxXxXxXxXxXxXxXxXxXxXxX",
"xXxXxXxXxXxXxXxXxXxX>X[.8XyXnX0XOXoX/.p y #XxXxXxXa q ~ z.N.K.~ ^ q.W B y.7.S +.8.[ 0 a s g jXxXxXxXxXxXxXxXxXxXxXxX",
"xXxXxXxXxXxXxXxXxX<X}.2X3X-XdX9X`.p [.xXxXxXxXxXxX$X] 9.b.B.J.~ ^ e.E V i.%.V ) :.L < t oX/.E.xXxXxXxXxXxXxXxXxXxXxX",
"xXxXxXxXxXxXxXxXxX|.3X8X;XOX+XXX8 xXxXxXxXxXxXxXxXsX3.9.M.F.A.! E q.( Z i.%.V ( w.Z ; q {.2XY.<XxXxXxXxXxXxXxXxXxXxX",
"xXxXxXxXxXxXxXxXOX3XyX*X+X+Xg 8 xXxXxXxXxXxXxXxXxXsX4.z.S.K.x.J Q e.( V i.$.n ` e.T : 6 g.fX3X[.xXxXxXxXxXxXxXxXxXxX",
"xXxXxXxXxXxXxX<X|.0XnX0X3Xl 9 xXxXxXxXxXxXxXxXxXxXaXk.M.C.I.2.K ( q.Q V w._ n ` q.Q S | ..dXfX[.%XxXxXxXxXxXxXxXxXxX",
"xXxXxXxXxXxXxX=X2X9X0X0X}.y xXxXxXxXxXxXxXxXxXxXkXaXa.M.B.I.j.A Q q.Q V w.( M ` e.T U @.w {.9X2XE.xXxXxXxXxXxXxXxXxX",
"xXxXxXxXxXxXeX_.fX4X:XXX8 xXxXxXxXxXxXxXxXxXxXxXgXpXa.M.B.I.j.A E q.( V w.+.A ( e.E Z @.6 f.8X8X_.,XxXxXxXxXxXxXxXxX",
"xXxXxXxXxXxX#X2X4X:X-Xl #XxXxXxXxXxXxXxXxXxXxXxXsX5.r.M.V.J.x.M R q.( V u.) B ) q.E Z $.6 k OX5X&X~.xXxXxXxXxXxXxXxX",
"xXxXxXxXxXxXoXwX6X:XQ.a xXxXxXxXxXxXxXxXxXxXxXxXaX6.m.n.H.A.2.M E e.( V w.$.V ) e.E Z :.J j {.7X8X+X<XxXxXxXxXxXxXxX",
"xXxXxXxXxX#X'.nXtX9Xg >XxXxXxXxXxXxXxXxXxXxXxXgX5.9.M.F.K.x.-.L E e.Q V i.%.N ` e.R U i.I w {.cXrX&X_.xXxXxXxXxXxXxX",
"xXxXxXxXxX=X9XqXcX5Xg xXxXxXxXxXxXxXxXxXxXxXxXsX4.c.B.F.H.x.=.V ( 8.R B u.%.B ` q.T Z i.( w OXcXyX8X|.kXxXxXxXxXxXxX",
"xXxXxXxXkX=XcX*X;X/.d xXxXxXxXxXxXxXxXxXxXxXxXsXX.r.M.D.L.x.,.L ( -.^ V w.%.Z ) 0.R Z u.( 4 h oX8X8XXX<XxXxXxXxXxXxX",
"xXxXxXxX,X`.cX;XOXf <XxXxXxXxXxXxXxXxXxXxXxXxX>XO.r.C.D.L.j.@.G E -.Y N e.%.Z ` e.Q T l.^ ; # s :X0X_.#XxXxXxXxXxXxX",
"xXxXxXxX^.&X0X=X{.Y.xXxXxXxXxXxXxXxXxXxXxXxXxX-X[ z.M.v.A.-.O.M ( :.R N u.$.N ) 0.Q T x.^ & + y -X7XXX|.xXxXxXxXxXxX",
"xXxXxXhX_.rXlX5X[.f xXxXxXxXxXxXxXxXxXxXxXxXxX$X@.r.' ( P D V : P #.U V p.$.V ) 8.P D w.^ & + a 6X8X8X|.kXxXxXxXxXxX",
"xXxXxX|.&XmXbXyX/.|.xXxXxXxXxXxXxXxXxXxXxXxXxX$X[ _ _ _ ` ) Q n b S N b ;.I M #.:.W L u.^ * # l vXiXiX2X,XxXxXxXxXxX",
"xXxXxXT.].MXzXtX(.,XxXxXxXxXxXxXxXxXxXxXxXxXxX.X| _ Y q.w.i.t.$./ R B z P M b { %.L L w.Q * # Y.zXnXmX2X#XxXxXxXxXxX",
"xXxXxXT.XXyX;X3XQ.kXxXxXxXxXxXxXxXxXxXxXxXxXxX.X| _ U 0.=.,.k.j.2.x.1.L H Z x Z W m U 0.{ = X p 3X4XyX1X#XkXxXxXxXxX",
"xXxXxXT.XXwX:X;XQ.xXxXxXxXxXxXxXxXxXxXxXxXxXxX.X! _ Y ` ! { <.<.=.;.x.2.p.y.U U x x n ( F $ o y -X-XrX*X#XxXxXxXxXxX",
"xXxXxXT.oXqX:XOX~.xXxXxXxXxXxXxXxXxXxXxXxXxXxX XO.e._ S ; : J | | >.h.2.1.2.:.w.p.} v A m - % a -X:XlX*X#XxXxXxXxXxX",
"xXxXxXT.XXnX7X8X}.hXxXxXxXxXxXxXxXxXxXxXxXxXxX.XL m.B.8.A b 1 - : F | O.O.j.j.;.2.2.:.u.@.m , f.9X9XuX&X|.xXxXxXxXxX",
"xXxXxXY.XXMXbXcX[.eXxXxXxXxXxXxXxXxXxXxXxXxXxX$XR b.M.m.Z.O.m : : b : : F  .>. .h.k.0.u.2.! ] OXcXcXiX2X|.xXxXxXxXxX",
"xXxXxXT.].MX0X9X(.jXxXxXxXxXxXxXxXxXxXxXxXxXxX$XR r.N.S.I.x.{ x C L : - : 3 3 F  .=.@.=.6.=.w k fXqXnX2X}.xXxXxXxXxX",
"xXxXxXT.`.yX:X*XQ.xXxXxXxXxXxXxXxXxXxXxXxXxXxX$X| b.C.F.P.x.,.Z W *.N z L 1 - ; : 3 F K <. .0 k OX@XfX*X~.xXxXxXxXxX",
"xXxXxXT.XXfX-X-X^.xXxXxXxXxXxXxXxXxXxXxXxXxXxX$X .z.m.F.P.j.*.N Q u.R V %.D : c b ; - : ] 1 , h OX@XwX2X~.xXxXxXxXxX",
"xXxXxXT.`.tX:X:X~.xXxXxXxXxXxXxXxXxXxXxXxXxXxX%X .s.N.H.H.x.,.G Q -./ B y.+.m #.+.x : b ; $ o p =X5XuX&XE.xXxXxXxXxX",
"xXxXxXT.`.mXlXfX_.eXxXxXxXxXxXxXxXxXxXxXxXxXxX$XX.d.N.D.P.c.,.G ( 0.P V w.+.M ( %.K D ( F * + s 9XrXiX&X~.xXxXxXxXxX",
"xXxXxXT.].NXbXcX/.,XxXxXxXxXxXxXxXxXxXxXxXxXxX>XX.b.N.D.P.x.I F O.-.P V y.$.V E 8.T U :.I * > [.cXcXMX2XE.xXxXxXxXxX",
"xXxXxXT.`.nX7X3XR.<XxXxXxXxXxXxXxXxXxXxXxXxXxXaXX.d.N.D.P.h...4 | 1.W V y.%.Z _ 8.D D e.| * + d dX7XtX&XE.xXxXxXxXxX",
"xXxXxXT.`.tX;X+XW.xXxXxXxXxXxXxXxXxXxXxXxXxXxX,XX.d.M.D.G.h.j i | 1.W V e.%.Z _ t.I D e.#.& o y +X:XrX&XR.xXxXxXxXxX",
"xXxXxXU.XXfX-X%XQ.xXxXxXxXxXxXxXxXxXxXxXxXxXxXsXo.s.n.D.G.t pXh | 1.W V e.%.B ) :.K S e.} & o p +X4XlX=XQ.xXxXxXxXxX",
"xXxXxXU._.uX4X;XQ.xXxXxXxXxXxXxXxXxXxXxXxXxXxX>X4.z.n.v.G.t f.t  .1.Q V u.%.Z _ &.L P r.+.& o d *X5XtX&XE.xXxXxXxXxX",
"xXxXxXU.].BXcXyX(.hXxXxXxXxXxXxXxXxXxXxXxXxXxX>X4.z.M.n.G.h.j q | -.R V w.%.B ` y.L S r.#., @ Y.lXuXMX2XT.xXxXxXxXxX",
"xXxXxXU.].BXcXcX/.hXxXxXxXxXxXxXxXxXxXxXxXxXxX>Xo.a.N.V.J.6.q , W w.W G a.&.H _ q.W D r./ & + (.cXbXmX2XE.xXxXxXxXxX",
"xXxXxXU.`.bX4X4XQ.xXxXxXxXxXxXxXxXxXxXxXxXxXxX>X4.d.M.B.P.k.q , O.w.Q V e.%.G #.e.{ T a.( & o f 4X7XyX&XQ.xXxXxXxXxX",
"xXxXxXf (.fX=X+X}.xXxXxXxXxXxXxXxXxXxXxXxXxXxX$XX.d.M.C.P.k.q < W 9.( V q.) G ) 9.{ T e.+.- o y OX:X0XXXE.xXxXxXxXxX",
"xXxXxXf _.lX=X#X^.xXxXxXxXxXxXxXxXxXxXxXxXxXxX>XX.b.M.V.P.k.0 < R ' ( Z q.) V ) -.I U e.#.= o p +X;XrX&XE.xXxXxXxXxX",
"xXxXxXU.).iX5X5X(.xXxXxXxXxXxXxXxXxXxXxXxXxXxXaX>.d.M.B.P.x.4 < ^ 9.( N q.) V ) 8.I Z e./ & + g 5XrXiX=X~.xXxXxXxXxX",
"xXxXxXU.'.BXrXuX(.kXxXxXxXxXxXxXxXxXxXxXxXxXxXsX>.a.M.B.P.6.q , R 9.( B q.%.G ) q.W D e.( = @ Y.uXiXMX&X~.xXxXxXxXxX",
"xXxXxXd ].BXlXlX[.xXxXxXxXxXxXxXxXxXxXxXxXxXxXsXX.d.M.V.P.<.e , W 9.( G i.%.V ) 8.W D r.@.= @ g 0XlXnX&X~.xXxXxXxXxX",
"xXxXxXU._.rX=X%X}.xXxXxXxXxXxXxXxXxXxXxXxXxXxXsX4.d.N.V.P.4.j q W i.} V i.$.H ) 8.I D l.+.& + p :X4XqX&X~.xXxXxXxXxX",
"xXxXxXU.`.qX-X-XQ.xXxXxXxXxXxXxXxXxXxXxXxXxXxXsX4.d.M.S.G...{.j X.2.+.B e.%.D %.y.W S a.) = + a :X:X9X&X~.xXxXxXxXxX",
"xXxXxXU.).0X:X=XQ.xXxXxXxXxXxXxXxXxXxXxXxXxXxXgX4.d.M.V.G.j 3.j  .1.W N e._ V #.y.P S a.+.; o y oX2XqXXXE.xXxXxXxXxX",
"xXxXxXU.'.iX0X9X}.xXxXxXxXxXxXxXxXxXxXxXxXxXxXhX4.r.M.D.G.o.j w ! 1.W V i.` V ) u.! S a.( , @ Y.9XtXiX].~.xXxXxXxXxX",
"xXxXxXU.].MXvXiXoXxXxXxXxXxXxXxXxXxXxXxXxXxXxXhX4.d.M.D.G.h.] 5 ! :.W V i.` V #.i.! S i./ = @ Y.nXnXmX&X^.xXxXxXxXxX",
"xXxXxXU.].nXdX7X}.xXxXxXxXxXxXxXxXxXxXxXxXxXxXgX4.s.M.V.J.x.X.F ^ 0.W V y.+.n #.7.P S a.^ = O s 0X0XvX&X^.xXxXxXxXxX",
"xXxXxXY.`.fX-X;XW.xXxXxXxXxXxXxXxXxXxXxXxXxXxXkX5.s.M.F.L.x.>.K ^ 0.Q V u.#.V #.q.R D q.P & o a ;X3XtX&X}.xXxXxXxXxX",
"xXxXxXY.).wX:X+XY.xXxXxXxXxXxXxXxXxXxXxXxXxXxXkX4.s.n.D.I.x.*.A E q.Q V w.#.M } q.P Z %.S ; , e OX:XzX&X~.xXxXxXxXxX",
"xXxXrXU.`.qXOX-X[.xXxXxXxXxXxXxXxXxXxXxXxXxXxXkX5.s.n.F.I.c.2.n E q.( n 0.+.V } ( 2 : ( ^ K 6 q l -XlX&X~.xXxXxXxXxX",
"xXxXxXT.'.BXiXrX`.kXxXxXxXxXxXxXxXxXxXxXxXxXxXkX5.b.M.S.J.x.1.V Q i.E N t.L z n P / @.#.-.;.K 6 f.fXMX]._.xXxXxXxXxX",
"xXxXxXT.].iXiXbX}.kXxXxXxXxXxXxXxXxXxXxXxXxXxXkX4.s.M.B.P.x.;.v Q *.Z z Q Q L R ;.2.1.t.p.<.[ ] f.zXMX].E.xXxXxXxXxX",
"xXxXxXT.`.uX6X4XQ.kXxXxXxXxXxXxXxXxXxXxXxXxXxXxX4.r.M.S.I.j.| c Z W S S R %.1.t.1.2.1.6.h.!  .w l 3XbX].E.xXxXxXxXxX",
"xXxXxXE.XXlX>XaXR.xXxXxXxXxXxXxXxXxXxXxXxXxXxXkX4.r.m.c.v.@.K c S ^ $.2.:.p.2.1.6.2.[  .J 1 4 t g.3XzXXX}.xXxXxXxXxX",
"xXxXxXT.XXfXOX.XR.xXxXxXxXxXxXxXxXxXxXxXxXxXxXkX<.9.7.Y S L O.*.:.1.:.2.2.2.<.O.>.I : 1 < & o r +X:XrXXX~.xXxXxXxXxX",
"xXxXxXT.`.uX3XOXT.jXxXxXxXxXxXxXxXxXxXxXxXxXxXkXX._ E _ -.&.2.p.:.p.2.;.=.>.F ; ; 3 ; : ; $ X s 7X5XrXoX_.kXxXxXxXxX",
"xXxXxXY.1XMXbXcX/.,XxXxXxXxXxXxXxXxXxXxXxXxXxXkX>.R S y.x.x.6.1.,.<.[ F 3 3 : : - ; b R M & # g bXbXmX=XE.kXxXxXxXxX",
"xXxXxXT.].mXcX0XY.%XxXxXxXxXxXxXxXxXxXxXxXxXxXkX .^ W y.-.;.<.I F F 1 < - : : b D m K i.^ = # g rXuXMX].E.xXxXxXxXxX",
"xXxXxXT.`.cX4X:XT.<XxXxXxXxXxXxXxXxXxXxXxXxXxXkX .' _ Y S K G 1 ; : - : D b c ( -.D U a.&.= O a :X5XcX'.Y.eXxXxXxXxX",
"xXxXxXU.).fXoX:XW.kXxXxXxXxXxXxXxXxXxXxXxXxXxXxX .r.e.R : : : < : b c M &.( V ) i.W T q.} = O y ;X*XrX`.U.xXxXxXxXxX",
"xXxXxXT.XXfXXX X~.xXxXxXxXxXxXxXxXxXxXxXxXxXxXjXO.z.m.8.P x : : L $.L V i.&.Z _ 7.+.I 0.Y & O y OXOXfX+XE.xXxXxXxXxX",
"xXxXxX#X[.OX}.!.aXxXxXxXxXxXxXxXxXxXxXxXxXxXxXgX[ r.m.F.A.1.R M ( e.( N i.%.V ` a.Q L a.E & O 9 l W.OX}.E.xXxXxXxXxX",
"xXxXxXxX,X|.#XhXxXxXxXxXxXxXxXxXxXxXxXxXxXxXxXaXW z.M.V.L.Z.,.G E e.) N i.#.V _ :.^ Z q.{ , O   O y U.E.gXxXxXxXxXxX",
"xXxXxXxXxXxXxXxXxXxXxXxXxXxXxXxXxXxXxXxXxXxXxX.X( z.M.V.L.x.%.H ^ e.( B i.( b ( j.S Z &.[ .   jXxXxXxXxXxXxXxXxXxXxX",
"xXxXxXxXxXxXxXxXxXxXxXxXxXxXxXxXxXxXxXxXxXxXxX X@.z.M.V.I.2.=.H ( q.Q N i.( M ( u.K 3 6 , 7 xXxXxXxXxXxXxXxXxXxXxXxX",
"xXxXxXxXxXxXxXxXxXxXxXxXxXxXxXxXxXxXxXxXxXxXxX!.+.z.N.V.L.x.;.V ) q.#.V w.+.G Q ,.5 . > ^.xXxXxXxXxXxXxXxXxXxXxXxXxX",
"xXxXxXxXxXxXxXxXxXxXxXxXxXxXxXxXxXxXxXxXxXxXxX!.#.s.n.S.L.x.2.V E q.Q V t.@.m G w 9 ^.xXxXxXxXxXxXxXxXxXxXxXxXxXxXxX",
"xXxXxXxXxXxXxXxXxXxXxXxXxXxXxXxXxXxXxXxXxXxXxX.X+.r.M.S.I.p.*.G R 0.R V t.O.< = u ,XxXxXxXxXxXxXxXxXxXxXxXxXxXxXxXxX",
"xXxXxXxXxXxXxXxXxXxXxXxXxXxXxXxXxXxXxXxXxXxXxX.X} s.M.D.L.u.@.M Q y.W x O.6 l gXxXxXxXxXxXxXxXxXxXxXxXxXxXxXxXxXxXxX",
"xXxXxXxXxXxXxXxXxXxXxXxXxXxXxXxXxXxXxXxXxXxXxX.X#.d.M.B.I.x.@.M { &.[ < 5 ^.kXxXxXxXxXxXxXxXxXxXxXxXxXxXxXxXxXxXxXxX",
"xXxXxXxXxXxXxXxXxXxXxXxXxXxXxXxXxXxXxXxXxXxXxX$XO.b.n.D.G.x./ J H ,.1 R.,XxXxXxXxXxXxXxXxXxXxXxXxXxXxXxXxXxXxXxXxXxX",
"xXxXxXxXxXxXxXxXxXxXxXxXxXxXxXxXxXxXxXxXxXxXxX$X@.d.N.S.I.x.=.6 ] 5 ^.xXxXxXxXxXxXxXxXxXxXxXxXxXxXxXxXxXxXxXxXxXxXxX",
"xXxXxXxXxXxXxXxXxXxXxXxXxXxXxXxXxXxXxXxXxXxXxX>X<.a.d.c.A.1.[ 0 U..XxXxXxXxXxXxXxXxXxXxXxXxXxXxXxXxXxXxXxXxXxXxXxXxX",
"xXxXxXxXxXxXxXxXxXxXxXxXxXxXxXxXxXxXxXxXxXxXxXsX5.} #.=.h.J i #XxXxXxXxXxXxXxXxXxXxXxXxXxXxXxXxXxXxXxXxXxXxXxXxXxXxX",
"xXxXxXxXxXxXxXxXxXxXxXxXxXxXxXxXxXxXxXxXxXxXxXxX^.!.W.h h W.^.xXxXxXxXxXxXxXxXxXxXxXxXxXxXxXxXxXxXxXxXxXxXxXxXxXxXxX",
"xXxXxXxXxXxXxXxXxXxXxXxXxXxXxXxXxXxXxXxXxXxXxXxXkXgXjXjXhXjXxXxXxXxXxXxXxXxXxXxXxXxXxXxXxXxXxXxXxXxXxXxXxXxXxXxXxXxX"
};
